<?xml version="1.0" encoding="utf-8"?>
<!-- Svg Vector Icons : http://www.onlinewebfonts.com/icon -->
<!DOCTYPE svg PUBLIC "-//W3C//DTD SVG 1.1//EN" "http://www.w3.org/Graphics/SVG/1.1/DTD/svg11.dtd">
<svg version="1.1" xmlns="http://www.w3.org/2000/svg" xmlns:xlink="http://www.w3.org/1999/xlink" x="0px" y="0px" viewBox="0 0 256 256" enable-background="new 0 0 256 256" xml:space="preserve">
<metadata> Svg Vector Icons : http://www.onlinewebfonts.com/icon </metadata>
<g><g><path fill="#000000" d="M108.2,142.8c-1.9-4.6-4.4-8.6-7.6-12c-3.1-3.4-6.8-6.2-10.9-8.8c-4-2.5-8.1-4.6-12.3-6.6c-4.2-1.9-8.4-3.6-12.5-5.4c-4-1.6-7.8-3.4-10.9-5.4c-3.2-1.9-5.8-4.3-7.6-6.7c-1.9-2.5-2.8-5.4-2.8-8.9c0-2.5,0.3-4.9,1.3-7.2c0.7-2.2,2-4.1,3.6-5.9c1.8-1.6,3.9-2.9,6.3-3.8c2.4-0.8,5.3-1.4,8.8-1.4c4.3,0,8.1,0.7,11.8,1.9c3.5,1.2,6.7,2.4,9.5,3.9c2.6,1.4,4.9,2.9,6.8,3.9c1.8,1.3,3.1,1.8,4,1.8c0.8,0,1.6-0.2,2.1-0.5c0.3-0.3,0.7-1.1,1-2.2c0.3-1,0.6-2.3,0.7-3.7c0-1.4,0.2-3.4,0.2-5.6c0-1.8-0.2-3.4-0.2-4.8c0-1.3-0.2-2.4-0.4-3.2c-0.3-0.8-0.5-1.4-0.8-2l-1.6-2.1c-0.7-0.9-2.4-2-4.9-3.2c-2.5-1.3-5.3-2.5-8.4-3.6c-3.2-1-6.6-1.8-10.4-2.4c-3.7-0.6-7.3-0.9-11.1-0.9c-7.2,0-14.1,1.1-20.4,2.9c-6.3,1.8-12,4.6-16.5,8.2c-4.7,3.8-8.4,8.4-11.2,14C11.3,78.7,10,85.1,10,92.4c0,6.6,0.8,12.1,3,16.8c1.9,4.6,4.5,8.6,7.6,12c3.2,3.4,6.6,6.3,10.7,8.8c4,2.5,8.3,4.6,12.5,6.5c4.2,2,8.3,3.7,12.3,5.5c4,1.9,7.5,3.6,10.7,5.4c3.1,1.9,5.7,4.3,7.8,6.8c2,2.4,3,5.5,3,8.9c0,3.5-0.7,6.6-1.8,9.3c-1,2.9-2.6,5.2-4.7,7c-2.1,1.9-4.6,3.4-7.6,4.5c-3,1-6.3,1.4-10.1,1.4c-5.8,0-11-0.6-15.2-1.9c-4.4-1-8-2.5-11.2-3.9c-3.1-1.4-5.8-2.7-7.8-4c-2.1-1.1-3.4-1.8-4.6-1.8c-0.8,0-1.6,0.3-2.1,0.7c-0.7,0.4-1,1.1-1.3,2c-0.4,1-0.7,2.3-0.9,3.7c-0.2,1.6-0.2,3.6-0.2,5.9c0,3.4,0.2,6.1,0.5,7.8c0.3,1.9,1.3,3.3,2.3,4.1c1.1,0.9,2.7,2,5.2,3c2.3,1.1,5.2,2.2,8.8,3.2c3.5,1.1,7.5,2,12.1,2.7c4.6,0.8,9.6,1.1,14.9,1.1c7.9,0,15.3-0.9,22.3-3c7.1-2.1,13.1-5.2,18.3-9.3c5.1-4.1,9.1-9.3,12.3-15.4c2.9-6.1,4.6-13.2,4.6-21.4C111.1,152.9,110.1,147.5,108.2,142.8z"/><path fill="#000000" d="M198.3,120.1c-3.9,0.7-10.5-0.1-15.7-0.1h-15.3V78.8h14.4c3.5,0,7.1,0.4,10.4,0.7c3.2,0.5,15,0.2,17.1,4c2,4,3.1,8.8,3.1,14.5c0,4.5-0.2,14.2-1.4,17.8C210.8,115.8,202.3,119.3,198.3,120.1z M243.2,78.5c-1.9-5.2-4.6-9.7-8.1-13.7c-3.5-3.7-7.9-6.9-12.8-9.4c-5.2-2.5-10-4.3-14.9-5.2c-5-0.9-9.2-1.4-12.6-1.9c-3.5-0.3-7.3-0.5-11.1-0.5h-38.8c-3.5,0-6.1,1.1-8.3,2.9c-0.9,0.8,0.6,36.9,0.7,71.7c0.2,42-0.9,84.1-0.2,84.3c1.3,0.3,3,0.8,5.1,0.9c2.1,0.3,4.9,0.3,8.3,0.3c3.1,0,6,0,8.1-0.3c2-0.2,3.8-0.6,5.2-0.9c1.3-0.3,2.1-1.1,2.6-1.8c0.5-0.7,0.9-1.4,0.9-2.4v-51.8H181c10.7,0,20.1-1,28.2-3.5c7.9-2.5,14.5-6.1,20-10.7c5.5-4.6,9.7-10.4,12.5-17.2c2.8-6.7,4.4-14.7,4.4-23.6C246,89.4,245,83.7,243.2,78.5z"/></g></g>
</svg>